<svg id="Warstwa_1" data-name="Warstwa 1" xmlns="http://www.w3.org/2000/svg" width="140.95" height="94" viewBox="0 0 140.95 94"><defs><style>.cls-1{fill:#1d1d1b;}.cls-1,.cls-2{fill-rule:evenodd;}.cls-2{fill:#ffec00;}</style></defs><path class="cls-1" d="M117.69,60.73h.71l.15-.82a3.6,3.6,0,0,1,1.1-.16.91.91,0,0,1,1,1v.87h-.87c-1.53,0-2.51.43-2.51,1.69A1.49,1.49,0,0,0,119,64.92a2.68,2.68,0,0,0,1.78-.87l.23.76,1.68-.06v-.59l-.87-.22V60.62c0-1.25-.75-1.69-2-1.69a7.59,7.59,0,0,0-2.12.44Zm3,1.58v.87a2.23,2.23,0,0,1-1.47.87.76.76,0,0,1-.8-.82c0-.65.42-.92,1.5-.92Z"/><polygon class="cls-1" points="109.01 59.8 109.83 59.7 109.83 59.04 107.38 59.1 107.38 59.7 107.93 59.86 109.29 64.81 110.54 64.81 111.57 61.44 111.8 60.39 112.06 61.44 113.09 64.81 114.34 64.81 115.67 59.8 116.3 59.7 116.3 59.04 113.86 59.1 113.86 59.7 114.62 59.86 113.75 63.83 112.4 58.93 111.36 59.1 109.94 63.83 109.01 59.8"/><path class="cls-1" d="M106.37,59.1h-1.58V57.51l-1.08.22V59.1l-1.09.11v.7h1.09v3.43c0,1.22.59,1.58,1.25,1.58a2.51,2.51,0,0,0,1.52-.55l-.29-.57a2,2,0,0,1-.85.27c-.31,0-.55-.16-.55-.66v-3.5h1.58Z"/><path class="cls-1" d="M97.93,63.07h-.76v1.61a6,6,0,0,0,1.72.24c1.3,0,2.39-.61,2.39-1.86,0-1.86-3-1.42-3-2.58,0-.56.41-.73,1-.73a2.72,2.72,0,0,1,.89.13l.17.85H101l0-1.47a7.06,7.06,0,0,0-1.86-.33c-1.12,0-2,.57-2,1.7,0,2,3,1.44,3,2.61,0,.68-.57.86-1.23.86a3.44,3.44,0,0,1-.91-.1Z"/><path class="cls-1" d="M93.05,58.93a2.77,2.77,0,0,0-2.78,3c0,2,1,2.94,2.61,2.94s2.72-1.25,2.72-3.1-.92-2.89-2.55-2.89M93,59.8c1.09,0,1.47.87,1.47,2.07,0,1.42-.43,2.18-1.52,2.18s-1.53-.82-1.53-2.12S91.9,59.8,93,59.8Z"/><polygon class="cls-1" points="85.64 63.99 88.83 59.86 88.83 59.04 84.64 59.04 84.64 60.67 85.4 60.67 85.55 59.86 87.6 59.86 84.42 63.99 84.42 64.81 88.77 64.81 88.77 63.12 88.01 63.12 87.86 63.99 85.64 63.99"/><path class="cls-1" d="M80.47,59l-1.79.06v.6l.92.21v4l-.92.27v.6h3.1v-.6l-1.09-.27V60.71a2,2,0,0,1,1.58-.85l.16.81h.71l0-1.57a3,3,0,0,0-1-.17,2.42,2.42,0,0,0-1.64.91Z"/><path class="cls-1" d="M77.29,59.1H75.71V57.51l-1.09.22V59.1l-1.09.11v.7h1.09v3.43c0,1.22.6,1.58,1.25,1.58a2.51,2.51,0,0,0,1.52-.55l-.29-.57a2,2,0,0,1-.85.27c-.3,0-.54-.16-.54-.66v-3.5h1.58Z"/><path class="cls-1" d="M68.85,63.07h-.77v1.61a6,6,0,0,0,1.72.24c1.31,0,2.39-.61,2.39-1.86,0-1.86-3-1.42-3-2.58,0-.56.41-.73,1-.73a2.69,2.69,0,0,1,.88.13l.17.85h.71l0-1.47a7.18,7.18,0,0,0-1.87-.33c-1.12,0-2,.57-2,1.7,0,2,3,1.44,3,2.61,0,.68-.58.86-1.23.86A3.35,3.35,0,0,1,69,64Z"/><path class="cls-1" d="M64.45,57.25a.67.67,0,0,0,.71.76.73.73,0,0,0,.7-.76c0-.55-.27-.76-.7-.76a.7.7,0,0,0-.71.76m2.12,7-.81-.27V59l-2,.06v.6l.93.21v4l-.93.27v.6h2.83Z"/><polygon class="cls-1" points="60.23 63.94 59.2 64.16 59.2 64.81 62.24 64.81 62.24 64.16 61.32 63.94 61.32 58.06 62.24 57.85 62.24 57.19 59.96 57.25 57.9 61.55 55.93 57.19 53.48 57.25 53.48 57.85 54.41 58.06 54.41 63.94 53.48 64.16 53.48 64.81 56.42 64.81 56.42 64.16 55.39 63.94 55.39 58.5 55.66 59.26 57.35 62.8 58.22 62.74 59.9 59.31 60.23 58.5 60.23 63.94"/><polygon class="cls-1" points="51.97 64.92 51.97 63.48 48.11 61.9 51.97 60.27 51.97 58.86 46.35 61.24 46.35 62.55 51.97 64.92"/><path class="cls-1" d="M127.69,75.41a6.29,6.29,0,0,0,.06-.82A2.29,2.29,0,0,0,125.29,72c-1.83,0-2.91,1.26-2.91,3.16a2.6,2.6,0,0,0,2.83,2.94,4.28,4.28,0,0,0,2.48-.92l-.47-.9a4.39,4.39,0,0,1-1.83.51,1.3,1.3,0,0,1-1.31-1.38Zm-2.51-2.07c.63,0,.89.47.89,1.09h-2A1.11,1.11,0,0,1,125.18,73.34Z"/><path class="cls-1" d="M120.65,76.24a2.85,2.85,0,0,1-1.58.58c-.9,0-1.36-.68-1.36-1.87s.49-1.61,1.27-1.61a3.1,3.1,0,0,1,.76.09l.15.77h1l0-1.79A6.05,6.05,0,0,0,119,72a2.81,2.81,0,0,0-3,3.14,2.65,2.65,0,0,0,2.82,3,3.66,3.66,0,0,0,2.35-.93Z"/><path class="cls-1" d="M112.09,70.35a.87.87,0,0,0,.93,1,.93.93,0,0,0,.91-1c0-.69-.34-1-.91-1a.92.92,0,0,0-.93,1m1.82,6.52V72.14l-2.5.06v.87l.87.27v3.53l-.87.28V78h3.26v-.87Z"/><path class="cls-1" d="M110.11,77.15l-.74-.28V74c0-1.22-.53-2-1.67-2a3.09,3.09,0,0,0-2,.94,1.5,1.5,0,0,0-1.5-.94,3.35,3.35,0,0,0-1.9.89l-.08-.78L100,72.2v.87l.82.27v3.53l-.83.28V78h3v-.87l-.58-.28V74a1.86,1.86,0,0,1,1.22-.57c.47,0,.62.3.62.9v2.58l-.56.28V78h2.76v-.87l-.57-.28V74a1.79,1.79,0,0,1,1.21-.57c.46,0,.63.3.63.9v2.58l-.57.28V78h2.94Z"/><path class="cls-1" d="M97,78.13a3.1,3.1,0,0,0,1.85-.68l-.39-.83a2.25,2.25,0,0,1-.86.25c-.46,0-.58-.28-.58-1V73.5h1.53V72.31H97v-1.8l-1.63.3v1.5l-1,.14v1h1V76c0,1.26.36,2.13,1.61,2.13"/><path class="cls-1" d="M87.07,73.07l.58.17L89.58,78c-.18.42-.59,1.35-1.46,1.35h-.7l-.15,1.16s.68.09,1,.09c1.73,0,2.44-1.52,3-3l1.6-4.46.67-.14v-.93l-2.92.06v.87l.63.14-.93,3-1-3,.61-.11v-.93l-2.9.06Z"/><path class="cls-1" d="M83.69,72.14l-2.28.06v.87l.87.27v3.53l-.87.28V78H85v-.87l-1.09-.28V74a1.9,1.9,0,0,1,1.18-.61l.16.93h1l.09-2.09a2.59,2.59,0,0,0-1-.2,2.7,2.7,0,0,0-1.51.86Z"/><path class="cls-1" d="M77.26,72a2.8,2.8,0,0,0-2.93,3.1c0,2.07,1,3,2.77,3S80,76.93,80,75,79,72,77.26,72m-.05,1.31c.78,0,1.11.58,1.11,1.69,0,1.3-.38,1.79-1.17,1.79S76,76.28,76,75.08,76.41,73.34,77.21,73.34Z"/><path class="cls-1" d="M67.1,79.21c0,1.2,1.1,1.58,2.81,1.58,2.09,0,3-.87,3-2.07S72.16,77,70.78,77H69.17l0-.73a4,4,0,0,0,.56,0c1.5,0,2.61-.65,2.61-2.23a2.45,2.45,0,0,0-.19-.86l.89-.15v-.87l-1.87,0A2.94,2.94,0,0,0,69.93,72c-1.49,0-2.61.74-2.61,2.23a1.88,1.88,0,0,0,.84,1.7,3.76,3.76,0,0,0-.57,1.23.76.76,0,0,0,.65.72s-1.14.37-1.14,1.3m2.77-6.06c.6,0,.87.35.87,1s-.23,1.09-.92,1.09S69,74.84,69,74.19,69.22,73.16,69.87,73.15Zm.47,5.08c.73,0,1.09.14,1.09.62s-.41.74-1.39.74-1.36-.1-1.36-.65a.9.9,0,0,1,.52-.71Z"/><polygon class="cls-1" points="64.99 76.88 64.99 69.59 62.48 69.67 62.48 70.54 63.34 70.76 63.34 76.88 62.48 77.15 62.48 78.02 65.97 78.02 65.97 77.15 64.99 76.88"/><path class="cls-1" d="M61.56,77.09l-.76-.3-2.34-6.44-1.74,0-2.4,6.41-.79.3V78h3.29v-.93l-.85-.3.27-.79h2.41l.27.8-.82.29V78h3.46ZM58.3,74.84H56.62l.86-2.58Z"/><polygon class="cls-1" points="48.1 73.23 47.46 76.25 46.27 72.09 44.84 72.33 43.68 76.25 42.97 73.2 43.65 73.07 43.65 72.14 40.8 72.2 40.8 73.07 41.28 73.22 42.76 78.02 44.41 78.02 45.21 75.58 45.48 74.39 45.67 75.24 46.53 78.02 48.2 78.02 49.65 73.2 50.22 73.07 50.22 72.14 47.44 72.2 47.44 73.07 48.1 73.23"/><polygon class="cls-1" points="135.33 86.69 139.19 88.32 135.33 89.9 135.33 91.33 140.95 88.96 140.95 87.66 135.33 85.28 135.33 86.69"/><path class="cls-1" d="M127.13,86.28l.87.27v2.84c0,1.22.63,2,1.72,2a3.1,3.1,0,0,0,1.9-.88l.11.77,2.3-.08V90.3l-.87-.22V85.35l-2.5.06v.87l.87.27v2.84a1.87,1.87,0,0,1-1.23.59c-.49,0-.67-.28-.67-.87V85.35l-2.5.06Z"/><path class="cls-1" d="M123.41,83.56a.88.88,0,0,0,.93,1,.93.93,0,0,0,.92-1c0-.69-.35-1-.92-1a.93.93,0,0,0-.93,1m1.83,6.52V85.35l-2.51.06v.87l.88.27v3.53l-.88.28v.87H126v-.87Z"/><path class="cls-1" d="M117,85.35l-2.31.06v.87l.87.27v3.53l-.87.28v.87h3.1v-.87l-.6-.28V87.25a1.69,1.69,0,0,1,1.16-.62c.46,0,.74.36.74.87v2.58l-.59.28v.87h3v-.87l-.76-.28V87.2c0-1.18-.6-1.93-1.66-1.93a3.88,3.88,0,0,0-2,.83Z"/><path class="cls-1" d="M111.17,91.23l2.17-.08v-.87l-.81-.2V87.4c0-1.58-.63-2.16-2.29-2.16a9.09,9.09,0,0,0-2.36.44l.08,1.61h1l.16-.69a2.83,2.83,0,0,1,1-.16c.54,0,.83.24.83.79v.6h-.76c-1.65,0-2.62.51-2.62,1.8a1.56,1.56,0,0,0,1.7,1.71,3,3,0,0,0,1.76-.82Zm-2.08-1.77c0-.49.34-.7,1.18-.7h.62v.73a2,2,0,0,1-1.16.63A.59.59,0,0,1,109.09,89.46Z"/><polygon class="cls-1" points="104.47 86.44 103.83 89.46 102.65 85.3 101.21 85.54 100.06 89.46 99.34 86.41 100.03 86.28 100.03 85.35 97.17 85.41 97.17 86.28 97.65 86.43 99.13 91.23 100.79 91.23 101.58 88.79 101.85 87.6 102.05 88.45 102.91 91.23 104.57 91.23 106.02 86.41 106.59 86.28 106.59 85.35 103.81 85.41 103.81 86.28 104.47 86.44"/><path class="cls-1" d="M93.57,85.24a2.81,2.81,0,0,0-2.94,3.1c0,2.07,1,3,2.78,3s2.9-1.2,2.9-3.16-1-2.94-2.74-2.94m0,1.31c.78,0,1.11.58,1.11,1.69,0,1.3-.38,1.79-1.17,1.79s-1.14-.54-1.14-1.74S92.72,86.55,93.52,86.55Z"/><path class="cls-1" d="M89.34,90.36l-.74-.28V87.2c0-1.22-.54-2-1.68-2a3.09,3.09,0,0,0-2,.94,1.5,1.5,0,0,0-1.5-.94,3.4,3.4,0,0,0-1.9.88l-.08-.77-2.27.06v.87l.83.27v3.53l-.84.28v.87h3v-.87l-.57-.28V87.17a1.83,1.83,0,0,1,1.22-.57c.46,0,.62.3.62.9v2.58l-.57.28v.87h2.76v-.87l-.56-.28V87.17a1.79,1.79,0,0,1,1.21-.57c.45,0,.63.3.63.9v2.58l-.58.28v.87h3Z"/><path class="cls-1" d="M75.72,91.23l2.17-.08v-.87l-.81-.2V87.4c0-1.58-.64-2.16-2.29-2.16a9.09,9.09,0,0,0-2.36.44l.08,1.61h1l.16-.69a2.83,2.83,0,0,1,1-.16c.54,0,.83.24.83.79v.6h-.76c-1.65,0-2.62.51-2.62,1.8a1.56,1.56,0,0,0,1.7,1.71,3,3,0,0,0,1.76-.82Zm-2.08-1.77c0-.49.34-.7,1.18-.7h.62v.73a2,2,0,0,1-1.16.63A.59.59,0,0,1,73.64,89.46Z"/><path class="cls-1" d="M68.31,85.35,66,85.41v.87l.87.27v3.53l-.87.28v.87h3.59v-.87l-1.09-.28V87.21a1.9,1.9,0,0,1,1.18-.61l.16.93h1l.09-2.09a2.57,2.57,0,0,0-1-.2,2.7,2.7,0,0,0-1.52.86Z"/><path class="cls-1" d="M58.8,92.42c0,1.2,1.09,1.58,2.8,1.58,2.09,0,3.05-.87,3.05-2.07s-.8-1.68-2.18-1.68H60.86l0-.73a4,4,0,0,0,.55,0c1.5,0,2.61-.65,2.61-2.23a2.47,2.47,0,0,0-.18-.86l.89-.15v-.87l-1.87,0a3.24,3.24,0,0,0-1.29-.26c-1.49,0-2.61.74-2.61,2.23a1.91,1.91,0,0,0,.84,1.7,3.76,3.76,0,0,0-.57,1.23.76.76,0,0,0,.66.72s-1.14.37-1.14,1.3m2.77-6.06c.6,0,.87.35.87,1s-.24,1.09-.92,1.09-.88-.44-.88-1.09S60.92,86.36,61.57,86.36ZM62,91.44c.73,0,1.08.13,1.08.62s-.41.74-1.39.74-1.36-.11-1.36-.65.53-.71.53-.71Z"/><path class="cls-1" d="M54.59,85.24a2.8,2.8,0,0,0-2.93,3.1c0,2.07,1,3,2.77,3a2.83,2.83,0,0,0,2.91-3.16c0-1.87-1-2.94-2.75-2.94m-.05,1.31c.78,0,1.11.58,1.11,1.69,0,1.3-.38,1.79-1.16,1.79s-1.15-.54-1.15-1.74S53.75,86.55,54.54,86.55Z"/><path class="cls-1" d="M48,85.35l-2.29.06v.87l.87.27v3.53l-.87.28v.87h3.59v-.87l-1.09-.28V87.21a1.9,1.9,0,0,1,1.18-.61l.16.93h1l.09-2.09a2.57,2.57,0,0,0-1-.2,2.7,2.7,0,0,0-1.52.86Z"/><path class="cls-1" d="M38.25,91.23h3.32V90.3L40.75,90V88.56h.58c2,0,3.1-.89,3.1-2.72,0-1.41-1-2.28-2.64-2.28h-1l-2.5,0v.93l.82.32V90l-.82.32Zm2.5-3.94V84.86h.87a1.07,1.07,0,0,1,1.12,1.2c0,.8-.51,1.23-1.41,1.23Z"/><path class="cls-1" d="M31.75,83.56a.88.88,0,0,0,.94,1,.93.93,0,0,0,.91-1c0-.69-.35-1-.91-1a.93.93,0,0,0-.94,1m1.83,6.52V85.35l-2.5.06v.87l.87.27v3.53l-.87.28v.87h3.26v-.87Z"/><path class="cls-2" d="M31.92,37.06l.65,2.72s-3.68.81-4.89,2.93c-1,1.69-.91,2.79-.11,5.33l2.17,7.18s1.88,5.74.33,9.47-7.34,4.48-8.92,4.78-3.16.76-3.16.76L16.8,65l1.52-.32s2.42-.36,3.05-1.85c.53-1.28.16-2.89-.22-4.57l-2.39-9.58s-1-3.67-.22-5.87a6.52,6.52,0,0,1,4.57-3.91Z"/><path class="cls-2" d="M31.3,34l-.67-3.54s-4.29.85-6.63-1.06c-1.86-1.52-2.35-2.86-2.79-6.27L19.9,13.55S19,5.82,15.49,2.17,5.51.48,3.7.9,0,1.56,0,1.56L1.36,8.34,3.13,8s2.72-.78,4.13.69C8.47,9.91,8.88,12,9.33,14.18L11.61,26.7s.79,4.85,2.72,7.07a7.46,7.46,0,0,0,6.77,2.38Z"/><polygon class="cls-1" points="99.36 19.98 100.99 27.27 80.87 41.73 79.34 34.34 83.48 31.51 81.41 21.94 85.87 23.02 87.07 29.12 94.57 24.44 76.41 20.09 74.99 13.02 99.36 19.98"/><polygon class="cls-1" points="78.26 42.49 70.42 44.13 69.34 39.01 72.38 36.95 69.77 23.68 58.57 40.43 40.29 28.79 43.23 43.58 46.93 43.8 47.91 49.13 39.97 50.76 34.09 21.28 38.23 20.41 56.28 31.94 68.25 14.21 72.38 13.34 78.26 42.49"/><path class="cls-1" d="M104.46,21.32l.63,2.74,1.24-.28a9.9,9.9,0,0,0,2.11-.64,1.8,1.8,0,0,0,.74-.67,1.13,1.13,0,0,0,.14-.82,1.11,1.11,0,0,0-.63-.77,2.19,2.19,0,0,0-1.19-.18,16.76,16.76,0,0,0-2,.38Zm-1.15,9.37-2.48-10.9,4.58-1a21.43,21.43,0,0,1,3.43-.61,4,4,0,0,1,2.28.6,3,3,0,0,1,1.3,1.94,4.63,4.63,0,0,1,0,2.22,3.49,3.49,0,0,1-1,1.35,4.82,4.82,0,0,1-1.36.85,20,20,0,0,1-2.92.83l-1.6.37.83,3.68Z"/></svg>