<?xml version="1.0" encoding="UTF-8"?>
<svg xmlns="http://www.w3.org/2000/svg" width="299.131" height="95.432" viewBox="0 0 299.131 95.432"><g id="Warstwa_x0020_1" transform="translate(-1047.037 -1240.744)"><g id="_2410680934192" transform="translate(1047.036 1240.744)"><path id="Path_2" data-name="Path 2" d="M4967.082,1695.87l2.365-.353h.109v17.044a14.265,14.265,0,0,0,.408,3.67,5.36,5.36,0,0,0,1.141,2.365v.027a4.376,4.376,0,0,0,2.012,1.278,9.308,9.308,0,0,0,3.072.435,9.468,9.468,0,0,0,3.1-.435,4.6,4.6,0,0,0,2.039-1.278h0a6.012,6.012,0,0,0,1.143-2.365,16.056,16.056,0,0,0,.379-3.7V1695.87h.083l2.417-.353h.11v17.072a18.514,18.514,0,0,1-.462,4.73,6.857,6.857,0,0,1-.626,1.522,6.078,6.078,0,0,1-.925,1.277,6.84,6.84,0,0,1-1.357,1.142,8.472,8.472,0,0,1-1.713.87h0a12.184,12.184,0,0,1-2.012.543,14.435,14.435,0,0,1-4.323,0,12.134,12.134,0,0,1-2.011-.543h0a8.489,8.489,0,0,1-1.714-.87h0a6.257,6.257,0,0,1-1.359-1.142,7.385,7.385,0,0,1-.923-1.277,7.938,7.938,0,0,1-.6-1.468,11.146,11.146,0,0,1-.325-1.985c-.083-.815-.109-1.74-.109-2.8V1695.87Zm23.568,26.587v-19.41l.11-.027,2.147-.245.111-.027v3.045a10.216,10.216,0,0,1,1.139-1.278,8.1,8.1,0,0,1,1.468-1.115h0a6.371,6.371,0,0,1,1.686-.652,6.754,6.754,0,0,1,1.849-.218h0a7.853,7.853,0,0,1,2.854.489,5.516,5.516,0,0,1,2.12,1.468h0a5.951,5.951,0,0,1,1.332,2.365,9.934,9.934,0,0,1,.463,3.126h0v12.315h-.11l-2.093.272-.108.027v-11.526h0a11.272,11.272,0,0,0-.326-2.882,5.425,5.425,0,0,0-.927-2.039h0a4.377,4.377,0,0,0-1.548-1.2,5.921,5.921,0,0,0-4.32,0,5.691,5.691,0,0,0-1.795,1.278h0a5.18,5.18,0,0,0-1.251,1.849,5.383,5.383,0,0,0-.434,2.2v12.016h-.082l-2.149.272-.137.027Zm20.035-25.391,1.6-1.957.083-.109.081.082,1.632,1.767.079.054-.079.082-1.632,1.957-.081.109-.083-.109-1.6-1.74-.053-.055Zm.518,25.445v-19.464l.081-.027,2.2-.245.11-.027v19.546h-.083l-2.2.3-.108.027Zm13.4.163-8.32-19.246-.053-.109.108-.027,2.146-.761.083-.027.053.081,6.227,14.653,6.906-14.653.079-.19.109.19,6.852,14.571,6.551-14.571.055-.081.08.027,1.985.653.108.027-.053.109-8.619,19.355-.081.217-.109-.217-6.986-15.087-6.932,15.087-.109.217Zm27.075-8.536,12.34-7.367a5.116,5.116,0,0,0-.814-.734,4.72,4.72,0,0,0-1.088-.625,6.848,6.848,0,0,0-1.277-.38,8.456,8.456,0,0,0-1.468-.109,7.748,7.748,0,0,0-7.2,4.7,7.688,7.688,0,0,0-.571,2.99c0,.191.026.354.026.489v.408h0c0,.136.027.272.027.408Zm15.3,5.872a12.238,12.238,0,0,1-1.876,1.223,11.582,11.582,0,0,1-1.875.87h0a11.512,11.512,0,0,1-1.9.489,11.944,11.944,0,0,1-1.958.19,10.591,10.591,0,0,1-4.023-.734,9.776,9.776,0,0,1-3.289-2.174,9.911,9.911,0,0,1-2.2-3.262,10.83,10.83,0,0,1-.706-3.942,10.276,10.276,0,0,1,.734-3.942,9.554,9.554,0,0,1,2.176-3.235,9.729,9.729,0,0,1,3.316-2.175,11,11,0,0,1,4-.707,11.393,11.393,0,0,1,2.583.3,7.985,7.985,0,0,1,2.229.9,7.468,7.468,0,0,1,1.848,1.468,8.1,8.1,0,0,1,1.386,1.984l.055.082-.082.054-14.9,8.78a7.157,7.157,0,0,0,1.2,1.713,6.834,6.834,0,0,0,1.6,1.332,7.154,7.154,0,0,0,1.93.843,7.881,7.881,0,0,0,2.147.272h0a7.819,7.819,0,0,0,1.767-.19,8.34,8.34,0,0,0,1.768-.571,12.447,12.447,0,0,0,1.875-.979c.653-.408,1.358-.924,2.093-1.495l.163-.136v3.018Zm4.241,2.447v-19.41l.081-.027,2.121-.245.135-.027v3.833a10.382,10.382,0,0,1,1.088-1.6,7.826,7.826,0,0,1,1.576-1.441,6.559,6.559,0,0,1,1.821-.843,7.711,7.711,0,0,1,2.12-.3h.681l-.055.163-.9,2.093-.027.081h-.054a6.794,6.794,0,0,0-2.774.843,5.774,5.774,0,0,0-1.957,1.93,9.41,9.41,0,0,0-1.142,3.126,20.977,20.977,0,0,0-.38,4.377v7.286h-.108l-2.12.272-.109.027Zm10.466-2.746,1.6-1.522.081-.081.055.081a9.632,9.632,0,0,0,1.087,1.033,6.438,6.438,0,0,0,1.168.707h0a5.347,5.347,0,0,0,1.252.462,7.406,7.406,0,0,0,1.358.136,4.681,4.681,0,0,0,1.576-.244,3.728,3.728,0,0,0,1.25-.707h0a2.865,2.865,0,0,0,.816-1.114,3.229,3.229,0,0,0,.272-1.387,3.427,3.427,0,0,0-.191-1.223,2.278,2.278,0,0,0-.6-.9,3.611,3.611,0,0,0-1.115-.734,9.674,9.674,0,0,0-1.768-.571h0a21.144,21.144,0,0,1-3.043-.979,7.39,7.39,0,0,1-1.9-1.169h0a3.927,3.927,0,0,1-1.006-1.495h0a5.737,5.737,0,0,1-.327-1.984,5.137,5.137,0,0,1,.436-2.148,5.5,5.5,0,0,1,1.359-1.767h0a6.5,6.5,0,0,1,2.065-1.2,8.168,8.168,0,0,1,2.5-.381h0a8.114,8.114,0,0,1,1.631.136,7.216,7.216,0,0,1,1.5.408h0a8.166,8.166,0,0,1,1.385.68,8.416,8.416,0,0,1,1.306.952l.053.055-.053.081-1.334,1.767-.081.082-.082-.082a10.224,10.224,0,0,0-1.087-.815,10.521,10.521,0,0,0-1.086-.6h0a6.371,6.371,0,0,0-1.087-.354,5.124,5.124,0,0,0-1.088-.109,5.5,5.5,0,0,0-1.575.218,3.682,3.682,0,0,0-1.252.679h0a3.081,3.081,0,0,0-.788,1.005,3.542,3.542,0,0,0-.271,1.332,2.358,2.358,0,0,0,.951,1.849,7.449,7.449,0,0,0,2.936,1.251h0c.244.054.464.109.654.163a3.932,3.932,0,0,1,.569.163,9.785,9.785,0,0,1,2.146.843,6.475,6.475,0,0,1,1.55,1.2h0a4.723,4.723,0,0,1,.952,1.523,5.694,5.694,0,0,1,.3,1.849,6.244,6.244,0,0,1-.461,2.392h0a5.815,5.815,0,0,1-1.413,1.957h0a7.006,7.006,0,0,1-2.148,1.305,7.913,7.913,0,0,1-2.583.435,11.041,11.041,0,0,1-1.93-.19,7.546,7.546,0,0,1-1.713-.6,8.943,8.943,0,0,1-1.548-.925,8.6,8.6,0,0,1-1.305-1.332l-.055-.055Zm20.361,9.6-2.121-.571-.135-.027.055-.11,4.838-9.65-8.672-15.577-.082-.108.136-.055,2.093-.6.082-.027.027.082,7.666,13.81,6.8-13.81.054-.082.083.027,2.039.571.136.027-.053.109-12.833,25.934-.027.082Zm23.378-7.014c-.161.054-.352.082-.543.136-.162.027-.353.054-.516.081-.191,0-.354.028-.517.028a2.857,2.857,0,0,1-.461.027,6.78,6.78,0,0,1-2.5-.407,3.523,3.523,0,0,1-1.661-1.251,5.553,5.553,0,0,1-.923-2.311,19.519,19.519,0,0,1-.3-3.642V1705.3h-2.8l.026-.136.625-2.067.028-.081h2.12v-4.486l.055-.027,2.122-1.278.162-.109v5.9h5v2.284h-5v9.922h0a13.432,13.432,0,0,0,.191,2.555,3.557,3.557,0,0,0,.516,1.5,2.147,2.147,0,0,0,.954.707,4,4,0,0,0,1.494.244,2.06,2.06,0,0,0,.407-.027c.137,0,.3-.027.436-.027.162-.027.326-.054.516-.082a4.91,4.91,0,0,0,.544-.109l.109-.027v2.338Zm4.975-8.155,12.342-7.367a5.17,5.17,0,0,0-.815-.734,4.673,4.673,0,0,0-1.089-.625,6.549,6.549,0,0,0-1.3-.38,7.954,7.954,0,0,0-1.44-.109,7.858,7.858,0,0,0-3.02.544,7.549,7.549,0,0,0-2.5,1.685,7.463,7.463,0,0,0-1.685,2.474,7.724,7.724,0,0,0-.571,2.99v.489a2.378,2.378,0,0,1,.027.408c0,.136.028.272.028.408h0A.615.615,0,0,0,5130.406,1714.138Zm15.306,5.872a12.265,12.265,0,0,1-1.876,1.223,11.61,11.61,0,0,1-1.876.87h0a11.5,11.5,0,0,1-1.9.489,11.93,11.93,0,0,1-1.956.19,10.829,10.829,0,0,1-4.051-.734,10.153,10.153,0,0,1-5.465-5.437,10.276,10.276,0,0,1-.707-3.942,10.8,10.8,0,0,1,.707-3.942,9.272,9.272,0,0,1,2.2-3.235,9.922,9.922,0,0,1,3.29-2.175,11.263,11.263,0,0,1,4.025-.707h0a11.387,11.387,0,0,1,2.582.3,7.979,7.979,0,0,1,2.229.9h0a8.273,8.273,0,0,1,3.233,3.452l.055.082-.109.054-14.869,8.78a7.93,7.93,0,0,0,1.169,1.713,7.572,7.572,0,0,0,1.631,1.332,7.12,7.12,0,0,0,1.93.843,7.872,7.872,0,0,0,2.148.272h0a7.974,7.974,0,0,0,1.765-.19,8.88,8.88,0,0,0,1.767-.571,12.408,12.408,0,0,0,1.876-.979c.652-.408,1.36-.924,2.093-1.495l.163-.136v3.018Zm12.5,2.284c-.189.054-.38.082-.544.136-.19.027-.378.054-.542.081-.164,0-.354.028-.518.028a2.677,2.677,0,0,1-.461.027,6.885,6.885,0,0,1-2.5-.407h0a3.656,3.656,0,0,1-1.66-1.251,5.93,5.93,0,0,1-.924-2.311,19.529,19.529,0,0,1-.3-3.642V1705.3h-2.8l.054-.136.6-2.067.028-.081h2.12v-4.486l.055-.027,2.148-1.278.135-.109v5.9h5v2.284h-5v9.922h0a16.209,16.209,0,0,0,.19,2.555,3.956,3.956,0,0,0,.518,1.5,2.3,2.3,0,0,0,.951.707,4.1,4.1,0,0,0,1.495.244,2.072,2.072,0,0,0,.408-.027c.163,0,.3-.027.463-.027l.488-.082a4.91,4.91,0,0,0,.544-.109l.136-.027v2.338Z" transform="translate(-4859.168 -1682.76)" fill="#fff"/><path id="Path_3" data-name="Path 3" d="M4976.2,3262.809l-11.144-26.8-.056-.137.135-.027,2.258-.435.081-.028.027.082,8.971,21.639,3.97-9.623-4.731-11.471-.055-.137.136-.027,1.985-.435.082-.028.028.082,3.779,9.134,3.75-9.134.055-.082.081.028,1.985.435.107.027-.025.137-4.786,11.471,4.023,9.623,8.944-21.639.028-.082.081.028,2.284.435.11.027-.028.137-11.146,26.8-.109.218-.082-.218-5.272-12.45-5.274,12.45-.109.218Zm24.113-.353v-19.437h.083l2.147-.271h.109v3.833a12.115,12.115,0,0,1,1.086-1.631,7.68,7.68,0,0,1,1.578-1.414,6.328,6.328,0,0,1,1.848-.842,7.321,7.321,0,0,1,2.092-.3h.679l-.053.136-.9,2.12-.024.054h-.056a6.8,6.8,0,0,0-2.772.87,5.774,5.774,0,0,0-1.958,1.93,9.413,9.413,0,0,0-1.142,3.127,22.711,22.711,0,0,0-.379,4.35v7.312h-.109l-2.122.272h-.109Zm13.62-9.814a7.886,7.886,0,0,0,4.812,7.232,8.194,8.194,0,0,0,6.008,0,7.931,7.931,0,0,0,2.5-1.712,7.733,7.733,0,0,0,1.713-2.528,7.6,7.6,0,0,0,.57-2.991,7.78,7.78,0,0,0-.57-2.989,7.608,7.608,0,0,0-1.713-2.5h0a7.914,7.914,0,0,0-2.5-1.712h0a8.181,8.181,0,0,0-6.008,0,7.712,7.712,0,0,0-2.528,1.712,7.614,7.614,0,0,0-1.712,2.5A7.807,7.807,0,0,0,5013.932,3252.642Zm-2.392,0a10.244,10.244,0,0,1,.707-3.914h0a9.482,9.482,0,0,1,2.2-3.234,9.9,9.9,0,0,1,3.289-2.175,10.654,10.654,0,0,1,4-.707,10.455,10.455,0,0,1,4,.707,9.629,9.629,0,0,1,3.289,2.175,9.81,9.81,0,0,1,2.175,3.234,10.144,10.144,0,0,1,.733,3.914,10.425,10.425,0,0,1-.733,3.969,9.824,9.824,0,0,1-2.175,3.235,9.267,9.267,0,0,1-3.289,2.175,11.175,11.175,0,0,1-7.966,0,9.64,9.64,0,0,1-3.289-2.175,9.882,9.882,0,0,1-2.2-3.262A10.3,10.3,0,0,1,5011.541,3252.642Zm41.348,7.748a13.07,13.07,0,0,1-3.48,1.767h0a11.256,11.256,0,0,1-1.847.435,10.826,10.826,0,0,1-1.848.164,10.465,10.465,0,0,1-4-.734,9.637,9.637,0,0,1-3.289-2.175,9.87,9.87,0,0,1-2.2-3.262,10.954,10.954,0,0,1,0-7.884,9.842,9.842,0,0,1,5.465-5.382,10.694,10.694,0,0,1,4.024-.707,15.205,15.205,0,0,1,1.956.109,12.482,12.482,0,0,1,1.794.407,9.929,9.929,0,0,1,1.685.681,12.852,12.852,0,0,1,1.633.978l.081.054-.056.109-1.44,1.712-.055.054-.081-.054a14.482,14.482,0,0,0-1.359-.788,8.124,8.124,0,0,0-1.359-.571h0a5.843,5.843,0,0,0-1.359-.327,8.382,8.382,0,0,0-1.439-.108,7.851,7.851,0,0,0-3.02.572,8.328,8.328,0,0,0-2.526,1.712,7.7,7.7,0,0,0-1.713,2.528,7.6,7.6,0,0,0-.57,2.963h0a7.739,7.739,0,0,0,.57,2.991,8,8,0,0,0,1.713,2.528,8.347,8.347,0,0,0,2.526,1.712,7.873,7.873,0,0,0,3.02.571,8.305,8.305,0,0,0,1.385-.136,6.824,6.824,0,0,0,1.414-.381,9.611,9.611,0,0,0,1.441-.6,10.621,10.621,0,0,0,1.386-.843l.081-.054.081.082,1.415,1.739.054.081Zm5.056,2.094V3250.44l-1.957,1.386-.164.11v-2.283l.054-.028,2.066-1.469v-12.8h.081l2.148-.3.136-.027v11.825l1.93-1.413.165-.11v2.284l-.055.027-2.039,1.468v13.157l-.108.027-2.148.3-.108.027Zm9.515-6.85a4.765,4.765,0,0,0,.354,1.9,4.419,4.419,0,0,0,1.033,1.549,4.508,4.508,0,0,0,1.576,1.033,5.156,5.156,0,0,0,1.985.353,5.423,5.423,0,0,0,1.931-.326,4.626,4.626,0,0,0,1.521-1.005,4.462,4.462,0,0,0,.952-1.549,5.938,5.938,0,0,0,0-3.887,4.154,4.154,0,0,0-.978-1.549,3.934,3.934,0,0,0-1.495-1.006,5.286,5.286,0,0,0-1.9-.326,5.744,5.744,0,0,0-1.985.326,4.775,4.775,0,0,0-1.6,1.033,4.416,4.416,0,0,0-1.033,1.549A4.86,4.86,0,0,0,5067.458,3255.633Zm9.679,4.919a6.761,6.761,0,0,1-.925.843,6.985,6.985,0,0,1-1.224.76,7.483,7.483,0,0,1-1.386.462,8.387,8.387,0,0,1-1.468.136,6.812,6.812,0,0,1-5.03-2.066,7.191,7.191,0,0,1-1.577-2.311,7.5,7.5,0,0,1,0-5.465,7.193,7.193,0,0,1,1.577-2.311,7.409,7.409,0,0,1,2.284-1.549,7.05,7.05,0,0,1,2.746-.516,6.34,6.34,0,0,1,1.442.135,9.126,9.126,0,0,1,1.385.435h0a8.449,8.449,0,0,1,1.279.707h0a4.956,4.956,0,0,1,.9.788v-2.146a6.035,6.035,0,0,0-.219-1.686,2.684,2.684,0,0,0-.734-1.169h0a2.975,2.975,0,0,0-1.223-.679,5.957,5.957,0,0,0-1.793-.244,10.456,10.456,0,0,0-1.28.081c-.433.082-.9.163-1.385.272-.461.136-.978.272-1.522.462s-1.142.407-1.739.679l-.217.082.08-.218.843-2.474v-.054l.055-.027c.463-.163.952-.3,1.387-.408a12.886,12.886,0,0,1,1.387-.326h0c.435-.082.9-.136,1.333-.191.434-.026.87-.054,1.276-.054,2.122,0,3.67.49,4.649,1.5h0a4.645,4.645,0,0,1,1.115,1.93,9.083,9.083,0,0,1,.354,2.745v13.593l-.081.027-2.148.463-.136.027v-2.23Zm13.374,2.093-8.319-19.219-.054-.109.108-.027,2.147-.789.109-.027.028.109,6.225,14.653,6.9-14.68.082-.189.109.189,6.877,14.6,6.553-14.6.026-.081.081.027,1.985.679.109.028-.027.109-8.646,19.327-.081.218-.108-.218-6.987-15.087-6.932,15.087-.108.218Zm24.468-2.935,1.6-1.55.082-.055.083.082a7.291,7.291,0,0,0,1.059,1.006,5.967,5.967,0,0,0,1.168.734h0a5.454,5.454,0,0,0,1.277.435,5.52,5.52,0,0,0,1.361.163,4.936,4.936,0,0,0,1.577-.244,3.9,3.9,0,0,0,1.249-.735h0a3.49,3.49,0,0,0,.817-1.087,3.958,3.958,0,0,0,.271-1.387,3.356,3.356,0,0,0-.22-1.224,2.489,2.489,0,0,0-.57-.924,4.367,4.367,0,0,0-1.14-.706,11.1,11.1,0,0,0-1.769-.6h0a19.708,19.708,0,0,1-3.016-.979,6.352,6.352,0,0,1-1.931-1.168,4.157,4.157,0,0,1-1.005-1.5,5.488,5.488,0,0,1-.326-1.957,5.082,5.082,0,0,1,.462-2.147,5.247,5.247,0,0,1,1.359-1.767h0a5.941,5.941,0,0,1,2.039-1.2,7.479,7.479,0,0,1,2.528-.408h0a10.249,10.249,0,0,1,1.6.137,13.68,13.68,0,0,1,1.495.407h0a9.647,9.647,0,0,1,1.413.68,10.238,10.238,0,0,1,1.278.952l.082.054-.055.082-1.359,1.767-.054.082-.108-.054a6.932,6.932,0,0,0-1.06-.816,7.377,7.377,0,0,0-1.116-.6h0a5.646,5.646,0,0,0-1.087-.354,4.845,4.845,0,0,0-2.664.109,3.331,3.331,0,0,0-1.224.652h0a2.969,2.969,0,0,0-1.06,2.338,2.245,2.245,0,0,0,.951,1.849,7.106,7.106,0,0,0,2.909,1.278c.272.054.49.109.681.163h0c.217.054.407.108.571.135h0a10.447,10.447,0,0,1,2.147.87h0a5.882,5.882,0,0,1,1.549,1.2h0a4.564,4.564,0,0,1,.924,1.523,4.915,4.915,0,0,1,.3,1.822,5.925,5.925,0,0,1-.463,2.419h0a6.462,6.462,0,0,1-1.414,1.957h0a6.082,6.082,0,0,1-2.122,1.278,7.321,7.321,0,0,1-2.609.435,8.7,8.7,0,0,1-1.9-.191,7.264,7.264,0,0,1-1.739-.571,6.774,6.774,0,0,1-1.522-.951h0a7.359,7.359,0,0,1-1.3-1.3l-.054-.082Zm20.089-7.314,8.263-9.813.054-.054.082.054,1.793,1.06.109.055-.082.109-7.339,8.753,8.373,8.672.053.082-.08.082-1.659,1.25-.055.055-.081-.055-9.433-9.7v9.324l-.082.027-2.149.38-.106.028v-27.375l.08-.027,2.147-.245.11-.027V3252.4Zm14.053-15.359,1.6-1.957.082-.083.081.083,1.657,1.767.056.054-.056.082-1.657,1.958-.055.081-.081-.081-1.632-1.767-.055-.054Zm.516,25.445v-19.464h.111l2.173-.271h.109v19.518l-.08.027-2.176.3-.137.027Z" transform="translate(-4857.222 -3180.895)" fill="#fff"/><g id="Group_2" data-name="Group 2" transform="translate(0 0)"><path id="Path_4" data-name="Path 4" d="M1521.249,1736.96c.6-1.5,1.3-2.474,3.751-2.719l.816-.081,1.386.326,1.685.408c.9-1.142,1.848-2.039,3.724-1.685l1.631.516a10.812,10.812,0,0,0,4.974,1.2l-1.495,2.012a9.912,9.912,0,0,0-1.169,2.555,6.375,6.375,0,0,0-.517,2.175,13.545,13.545,0,0,0,.924,6.416,13.278,13.278,0,0,0,4.486,5.491l-.244,8.645c-4.894,1.5-9.9-1.631-10.14-1.522-2.691,1.739-8.4,1.522-9.677,1.386l-.245-8.509c1.495.028,5.219-4.132,5.953-5.709a12.249,12.249,0,0,0,1.087-6.768l-1.359-1.115c-2.229-1.06-2.719-1.739-2.61-2.555l.19.136c2.8,1.332,3.317.516,2.692-.028-1.658-.625-2.447-1.5-5.845-.38Zm5.845,13.239c.6-.952.462-1.06,1.413-.245l.924.925.707-.925c.571-1.522.924-.571,1.631.109l.571.6.816-.924c.244-.354.462-.707.815,0,.136,0,.6,1.033.952,1.033.218.109.462-.816.68-1.033.353-.489.462-.707.815-.489.6.6.353,1.169,1.169,1.876.951.924,2.447,2.8,3.4,3.969l.109.925a14.451,14.451,0,0,1-2.093,4.078,5.164,5.164,0,0,1-.952-1.74c-.571.816-.816,1.523-1.386,1.876l-1.278-1.414-1.278,1.414c-.951-.6-.951-.951-1.522-1.876l-.6.462-1.033,1.414-1.875-1.767a4.508,4.508,0,0,1-1.169,2.229l-1.277-1.414-1.414,1.767-.679-.816-1.305-1.876-1.386-3.044,1.74-1.387.816-1.06,1.522-1.169c.354-.815.924-1.033,1.169-1.495Zm-.816,1.495c0-.326,1.413-1.631,1.522-1.495.571.571,1.278,1.278,1.522,1.495a5.685,5.685,0,0,1-1.631,2.582c-.6-.6-1.658-1.767-1.413-2.582Zm-1.984,2.229c.108-.354,1.278-1.522,1.414-1.413.571.6,1.386,1.767,1.631,1.985a3.208,3.208,0,0,1-1.631,2.12c-.49-.6-1.631-1.875-1.414-2.692Zm-1.876,1.631c0-.353,1.305-1.169,1.414-1.06a8.3,8.3,0,0,1,1.169,1.984,17.271,17.271,0,0,1-1.414,1.631c-.571-.679-1.386-1.74-1.169-2.555Zm1.659,2.691c.109-.353,1.277-1.522,1.386-1.414.816.816.571.816,1.06,1.632.217.6-.707,1.169-1.3,1.876-.462-.707-1.386-1.278-1.142-2.094Zm15.957-.6a3.808,3.808,0,0,1-1.033,1.767c-.245-.135-.952-1.522-.816-1.767a6.8,6.8,0,0,1,.68-1.278,13.607,13.607,0,0,1,1.169,1.278Zm-.109-.571c.354-.353.924-.952.707-1.414a4.074,4.074,0,0,0-.951-1.169c-.109.245-.326.489-.68,1.169,0,.136-.462.245.924,1.414Zm-2.093.571c-.354.461-.816,1.631-1.169,1.876-.463-.707-1.06-1.169-1.169-1.631a7.258,7.258,0,0,1,1.278-2.093,4.109,4.109,0,0,1,1.06,1.849Zm-11.445-.571c0-.353,1.169-1.278,1.3-1.169.571.571,1.033,1.278,1.387,1.522a4.17,4.17,0,0,1-1.278,2.556c-.6-.571-1.631-2.093-1.414-2.909Zm1.414-2.337a5.476,5.476,0,0,1,1.631-1.631c.462.571,1.033,1.387,1.278,1.739a3.546,3.546,0,0,1-1.386,2.229c-.489-.707-1.767-1.523-1.522-2.337Zm3.153.108c.109-.218,1.169-1.848,1.278-1.739.462.571,1.033,1.522,1.278,1.739a3.117,3.117,0,0,1-1.169,2.121c-.463-.6-1.522-1.414-1.387-2.121Zm-1.522,3.154a6.845,6.845,0,0,1,1.522-1.984c.462.462.816,1.413,1.169,1.631a3.914,3.914,0,0,1-1.169,2.12c-.6-.6-1.3-1.06-1.522-1.767Zm3.154-.462c0-.354,1.033-1.74,1.169-1.631a23.524,23.524,0,0,1,1.5,1.985c-.109.924-.68,1.169-1.278,1.631-.462-.6-1.631-1.278-1.386-1.985Zm1.277-2.692c.109-.218,1.169-1.984,1.278-1.848.462.57,1.06,1.63,1.278,1.848a5.6,5.6,0,0,1-1.169,2.229c-.463-.6-1.5-1.414-1.387-2.229Zm2.909-.218a7.361,7.361,0,0,1,1.169-2.12,13.7,13.7,0,0,1,1.414,1.767,11.741,11.741,0,0,1-1.169,2.338c-.462-.6-1.631-1.169-1.413-1.985Zm-7.231-2.936a5.813,5.813,0,0,1,1.414-1.495,7.459,7.459,0,0,0,1.169,1.386,4.652,4.652,0,0,1-1.169,2.583c-.489-.6-1.522-1.659-1.414-2.474Zm5.492,0a4.186,4.186,0,0,1,1.169-1.495c.463.571,1.033,1.386,1.278,1.63a3.891,3.891,0,0,1-1.06,2.339c-.463-.6-1.631-1.659-1.386-2.474Zm-2.8,0c0-.217,1.278-1.495,1.386-1.386.49.571,1.06,1.06,1.305,1.386a5.8,5.8,0,0,1-1.305,2.691c-.462-.706-1.631-1.739-1.386-2.691Zm-.408-16.392c.68.19,1.277.544,1.712.6a1.517,1.517,0,0,0-.788.435c-.734.626-1.794.164-2.256-.081C1530.328,1735.953,1530.791,1735.3,1531.824,1735.3Zm-2.392,39.037c0,.815,1.169,1.848,1.522,2.093a5.1,5.1,0,0,0,1.849-2.338l-1.74-1.387Zm1.876-3.507a5.061,5.061,0,0,0,1.278,2.229l.679.68a9.891,9.891,0,0,0,1.658-3.018l-1.767-1.278Zm-4.1.245a7.3,7.3,0,0,0,1.169,2.338l.707.571a9.653,9.653,0,0,0,1.74-3.045l-1.74-1.277Zm1.06,10.955a22.173,22.173,0,0,1,2.8-.109,12.733,12.733,0,0,1,2.447.218c.815-.462-.571-1.033-2.8-1.169-2.447.244-2.447,1.06-2.447,1.06Zm-.462,1.875a15.889,15.889,0,0,0,3.615.109c2.8-.109,3.153-.354,3.153-.354,1.169.816-.815,2.093-3.506,2.338-3.262-.6-3.262-2.094-3.262-2.094Zm9.215-15.277a23.688,23.688,0,0,1-6.062,8.971c-3.262-3.154-4.92-5.953-5.736-8.754.354-.353,1.522,1.169,2.338,1.06.462,0,1.06-1.169,1.522-1.277.707,0,1.278,1.631,1.875,1.386.68-.245,1.632-1.278,2.093-1.386.571-.136,1.06,1.033,1.631,1.033.925,0,1.386-1.033,2.338-1.033Zm3.018,22.617c.136.245-3.969-1.278-5.709-3.969.816,4.431,1.875,4.213,5.6,5.708Zm-8.4-4.322.135,10.847c3.48-4.893-.135-11.662-.135-10.847Zm-7.232,6.307c.136-.6,3.4-1.875,3.969-5.845.951,2.447.462,5.736-4.322,7.367Zm-3.371-27.538a98.37,98.37,0,0,0,20.171.136l-.218,3.724c-1.767,1.06-.952,2.555,0,3.724l.218,7.693a7.817,7.817,0,0,1-2.094,4.322c-2.093-2.2-2.909-4.078-2.446-5.6a4.929,4.929,0,0,0-.245-3.833c-1.849.925-2.311,4.432-.925,5.818a4.566,4.566,0,0,1-.244,4.431c1.3,2.583,3.044,3.507,5.845,4.676v4.54l-2.093.354a8.8,8.8,0,0,1-4.432-1.523c-.951,3.262-.707,4.893-3.153,7.122-2.229-1.631-3.86-3.724-3.86-6.877-1.277,1.631-4.186,1.848-5.953,1.278l.136-4.676c2.664-.679,4.649-1.984,5-4.893-2.2-1.278-1.522-3.262-.108-5.138.924-3.371.815-3.942-1.279-5.247l-.707,2.121v2.2l.245,1.413-.353,2.446-1.169,1.5-1.767-2.2-.326-3.507-.136-5.818c2.229-2.12,1.277-2.8-.109-5.246Zm24.847,13.076c1.169.571,2.338,1.876,3.154,4.785l1.277.706c-.353,2.093-3.86.462-4.322-1.06Zm-29.169-.109c-1.169.462-2.338,1.74-3.153,4.784l-1.278.68c.353,1.984,3.86.353,4.322-1.033Zm29.523,11.064c1.631.245,3.018-.571,4.323-1.032.109,0,.217-.136.326-.136.354,0,.489,0,.136,1.169a6.062,6.062,0,0,1-4.785,3.969Zm-30.691.707c-1.631.244-3.153-.6-4.431-1.061-.109,0-.218-.108-.354-.108-.462,0-.571,0-.218,1.169a6.392,6.392,0,0,0,5,3.969Zm24.956-44.556a9.723,9.723,0,0,0,5.492.109c.462,0,.6-.354.462.353-.462,2.093-5.355,3.044-6.171-.245-.109-.462-.109-.218.218-.218Zm1.876,3.018c-1.985-.462-3.371-1.631-3.371-3.616,0-.462-.136-.462.353-.326a6.765,6.765,0,0,0,3.371.218,3.588,3.588,0,0,0,0-1.522c-.462-.68-1.169-1.5-.815-1.74,0-.109.571,0,1.169,0,.217,0,.108-2.093.108-1.984s-.707-.571-.707-.924c0-.245,1.658-.462,2.121,0,.218.218-.6.816-.6,1.033a3.674,3.674,0,0,0,.245,1.875,3.266,3.266,0,0,1,1.033,0c.245.245-.218,1.06-.679,1.631a1.376,1.376,0,0,0-.354,1.631,6.381,6.381,0,0,0,3.262-.218c.245-.136.462,0,.462.218-.217,1.631-1.386,3.045-3.724,3.724v46.676l.571.354c1.984,1.169,1.876,2.554-.353,3.37l-.68.354c1.169,3.018-2.447,3.262-1.413.109l-.708-.462c-2.092-1.278-2.2-2.446-.217-3.262l.925-.353Zm-26.234-3.262a11.067,11.067,0,0,0,5.464.245c.49-.109.6-.462.49.218-.49,2.12-5.383,3.044-6.2-.218-.109-.353-.109-.245.245-.109Zm1.849,3.045c-1.984-.462-3.371-1.631-3.371-3.615,0-.462-.109-.462.354-.353a6.793,6.793,0,0,0,3.37.245,2.849,2.849,0,0,0,0-1.522c-.462-.6-1.169-1.523-.815-1.767,0-.109.6,0,1.169,0,.245,0,.109-2.093.109-1.984,0,.136-.68-.571-.68-.924a2.223,2.223,0,0,1,2.093,0c.217.245-.6.816-.6,1.06a3.552,3.552,0,0,0,.244,1.849,3.453,3.453,0,0,1,1.06,0c.218.245-.245,1.06-.815,1.658a1.478,1.478,0,0,0-.245,1.631,6.353,6.353,0,0,0,3.262-.245c.245-.109.462,0,.462.353-.217,1.522-1.386,2.909-3.724,3.615v46.649l.571.462c1.984,1.061,1.876,2.582-.326,3.262l-.707.354c1.169,3.044-2.447,3.262-1.414.136l-.68-.49c-2.12-1.278-2.228-2.311-.353-3.262l1.033-.354Zm-12.016,30.8c.136.109,3.969-.707,4.105-2.8.326-2.691-.354-5.138,2.311-7.231,4.92.679,1.06,6.171-.218,7.693-2.691,2.691-2.229,2.691-5.953,2.8,0,0-.353-.6-.245-.462Zm-3.371-7.014c2.555-1.278,3.371-1.74,4.077-4.893.245-3.371,2.909-4.431,3.045,0-1.522,4.893-3.262,6.171-8.4,5.491,0,0,1.033-.49,1.278-.6Zm-3.724-7.448,1.387-.245c3.262-2.338,2.229-6.416,3.507-7.34,1.169-.135,1.631.353,1.386,1.5l-.108,1.876-1.06,2.691c-2.446,3.507-5.11,1.74-5.11,1.522Zm17.724-3.969c0,1.277-9.324-3.263-7.829-13.185,5.383.109,3.507-3.506.353-1.63.462-1.631.6-4.214-.924-3.507a3.128,3.128,0,0,0-.108,3.616c-1.631-.816-2.691-.924-3.045-.707-.353,1.169,0,1.767,2.691,2.229-.952,7.938,1.386,14.218,8.862,16.91l.218,9.677c-3.018,5.845-8.971,12.478-14.218,3.725,3.371.814,5.844-.219,6.416-2.91l.571-3.37-1.74,2.338c-3.507,1.277-5.953,1.74-8.862-2.582l2.094-.11,1.522-.6a6.044,6.044,0,0,0,3.153-5.708c-1.631,1.631-6.769,3.969-8.753-.815,2.556,0,3.724-1.033,4.431-3.969v-3.833a2.569,2.569,0,0,1-2.909-.353c3.725-1.876,3.725-4.567,4.323-8.047.68-9.216,11.526-10.167,11.064-1.523l-1.033,1.631c.326,3.153-.136,5.708,3.724,5.845Zm39.88,18.077c-.108.109-3.969-.6-4.186-2.8-.245-2.691.462-5.138-2.23-7.231-4.893.815-1.169,6.17.245,7.8,2.692,2.582,2.2,2.582,5.954,2.691,0,0,.353-.6.217-.462Zm3.263-7.014c-2.447-1.277-3.263-1.74-4.078-4.893-.109-3.371-2.909-4.431-3.018,0,1.522,4.893,3.371,6.2,8.509,5.355a13.548,13.548,0,0,1-1.414-.462Zm3.86-7.448-1.386-.245c-3.4-2.339-2.229-6.525-3.616-7.34-1.169-.109-1.631.353-1.414,1.522l.109,1.849,1.06,2.691c2.556,3.506,5.138,1.632,5.247,1.523Zm-17.833-3.507c0,1.278,9.324-3.725,7.8-13.647-5.355.108-3.507-3.507-.353-1.631-.571-1.63-.571-4.214.951-3.4a3.177,3.177,0,0,1,.108,3.507c1.632-.816,2.692-.924,3.018-.707.354,1.169,0,1.767-2.664,2.229.924,7.938-1.522,14.57-9,17.154v9.569c3.045,5.709,9,12.341,14.244,3.616-3.4.815-5.844-.245-6.415-2.936l-.6-3.371,1.767,2.338c3.371,1.278,5.954,1.741,8.862-2.582l-2.229-.109-1.386-.571c-2.093-1.06-3.153-3.045-3.262-5.736,1.631,1.631,6.742,3.86,8.862-.815-2.582,0-3.752-1.034-4.431-3.969v-3.833a2.439,2.439,0,0,0,2.909-.462c-3.861-1.767-3.861-4.567-4.431-8.046-.707-9.107-11.553-10.031-11.2-1.414l1.169,1.631c-.353,3.153.217,5.845-3.724,5.845Z" transform="translate(-1483.499 -1719.854)" fill="#fff" fill-rule="evenodd"/><path id="Path_5" data-name="Path 5" d="M1068.989,1249.563a47.726,47.726,0,1,1-63.829,21.965,47.835,47.835,0,0,1,63.829-21.965Zm-.951,1.9a45.465,45.465,0,1,1-60.676,20.959,45.523,45.523,0,0,1,60.676-20.959Z" transform="translate(-1000.33 -1244.744)" fill="#fff" fill-rule="evenodd"/></g></g></g></svg>